<svg xmlns="http://www.w3.org/2000/svg" width="157.535" height="81.63" viewBox="0 0 157.535 81.63">
  <defs>
    <style>
      .cls-1 {
        fill: #ffe500;
        fill-rule: evenodd;
      }
    </style>
  </defs>
  <path id="Composite_Path" data-name="Composite Path" class="cls-1" d="M983.345,1041.54l-7.436-.99-2.956-8.23-4.111-.5-11.871-17.92-21.709,22.21-9.193-19.91-5.127,1.62-20.554-32.055L890,1014.87l-17.228,18.77-21.155,33.74H1009.17Zm-77.413,1.04v-13.39l-15.566,18.66-3.1-8.55-10.3,23.9-16.906.07,17.784-27.48,16.212-16.47,7.481-21.73v25.91l9.887-5.49Zm48.776,3.07-2.5-3.3-16.95,23.05,7.438-18.59-19.263,16.14,14.457-24.53,19.586-18.61-5.452,12.84,6.468-2.13Z" transform="translate(-851.625 -985.75)"/>
</svg>
